<svg width="429" height="521" viewBox="0 0 429 521" fill="none" xmlns="http://www.w3.org/2000/svg">
<g clip-path="url(#clip0_4_1601)">
<g opacity="0.5">
<mask id="mask0_4_1601" style="mask-type:luminance" maskUnits="userSpaceOnUse" x="224" y="499" width="206" height="23">
<path fill-rule="evenodd" clip-rule="evenodd" d="M429.596 499.077H224.596V521.077H429.596V499.077Z" fill="white"/>
</mask>
<g mask="url(#mask0_4_1601)">
<g filter="url(#filter0_f_4_1601)">
<path d="M359.596 521.077C323.697 521.077 294.596 517.72 294.596 513.577C294.596 509.435 323.697 506.077 359.596 506.077C395.495 506.077 424.596 509.435 424.596 513.577C424.596 517.72 395.495 521.077 359.596 521.077Z" fill="#1F8274"/>
</g>
</g>
</g>
<g opacity="0.7">
<mask id="mask1_4_1601" style="mask-type:luminance" maskUnits="userSpaceOnUse" x="-1" y="499" width="186" height="23">
<path fill-rule="evenodd" clip-rule="evenodd" d="M-0.982971 499.692H184.017V521.692H-0.982971V499.692Z" fill="white"/>
</mask>
<g mask="url(#mask1_4_1601)">
<g opacity="0.7" filter="url(#filter1_f_4_1601)">
<path d="M72.517 521.692C104.826 521.692 131.017 518.334 131.017 514.192C131.017 510.05 104.826 506.692 72.517 506.692C40.2084 506.692 14.017 510.05 14.017 514.192C14.017 518.334 40.2084 521.692 72.517 521.692Z" fill="#2797FF"/>
</g>
</g>
</g>
<g opacity="0.7">
<mask id="mask2_4_1601" style="mask-type:luminance" maskUnits="userSpaceOnUse" x="98" y="499" width="167" height="23">
<path fill-rule="evenodd" clip-rule="evenodd" d="M264.593 499.077H98.5929V521.077H264.593V499.077Z" fill="white"/>
</mask>
<g mask="url(#mask2_4_1601)">
<g opacity="0.7" filter="url(#filter2_f_4_1601)">
<path d="M201.593 521.077C172.322 521.077 148.593 517.72 148.593 513.577C148.593 509.435 172.322 506.077 201.593 506.077C230.864 506.077 254.593 509.435 254.593 513.577C254.593 517.72 230.864 521.077 201.593 521.077Z" fill="#319BBB"/>
</g>
</g>
</g>
<g opacity="0.7">
<mask id="mask3_4_1601" style="mask-type:luminance" maskUnits="userSpaceOnUse" x="165" y="499" width="167" height="23">
<path fill-rule="evenodd" clip-rule="evenodd" d="M165.593 499.077H331.593V521.077H165.593V499.077Z" fill="white"/>
</mask>
<g mask="url(#mask3_4_1601)">
<g opacity="0.7" filter="url(#filter3_f_4_1601)">
<path d="M228.593 521.077C257.864 521.077 281.593 517.72 281.593 513.577C281.593 509.435 257.864 506.077 228.593 506.077C199.322 506.077 175.593 509.435 175.593 513.577C175.593 517.72 199.322 521.077 228.593 521.077Z" fill="#319BBB"/>
</g>
</g>
</g>
<mask id="mask4_4_1601" style="mask-type:luminance" maskUnits="userSpaceOnUse" x="0" y="-4" width="430" height="526">
<path d="M430 -4H0V522H430V-4Z" fill="white"/>
</mask>
<g mask="url(#mask4_4_1601)">
<path d="M6.44531 378L3.13281 368.461H3.07031C3.15885 369.878 3.20312 371.206 3.20312 372.445V378H1.50781V366.578H4.14062L7.3125 375.664H7.35937L10.625 366.578H13.2656V378H11.4687V372.352C11.4687 371.784 11.4818 371.044 11.5078 370.133C11.5391 369.221 11.5651 368.669 11.5859 368.477H11.5234L8.09375 378H6.44531ZM20.9844 378L20.6172 376.797H20.5547C20.138 377.323 19.7187 377.682 19.2969 377.875C18.875 378.062 18.3333 378.156 17.6719 378.156C16.8229 378.156 16.1589 377.927 15.6797 377.469C15.2057 377.01 14.9687 376.362 14.9687 375.523C14.9687 374.633 15.2995 373.961 15.9609 373.508C16.6224 373.055 17.6302 372.807 18.9844 372.766L20.4766 372.719V372.258C20.4766 371.706 20.3464 371.294 20.0859 371.023C19.8307 370.747 19.4323 370.609 18.8906 370.609C18.4479 370.609 18.0234 370.674 17.6172 370.805C17.2109 370.935 16.8203 371.089 16.4453 371.266L15.8516 369.953C16.3203 369.708 16.8333 369.523 17.3906 369.398C17.9479 369.268 18.474 369.203 18.9688 369.203C20.0677 369.203 20.8958 369.443 21.4531 369.922C22.0156 370.401 22.2969 371.154 22.2969 372.18V378H20.9844ZM18.25 376.75C18.9167 376.75 19.4505 376.565 19.8516 376.195C20.2578 375.82 20.4609 375.297 20.4609 374.625V373.875L19.3516 373.922C18.487 373.953 17.8568 374.099 17.4609 374.359C17.0703 374.615 16.875 375.008 16.875 375.539C16.875 375.924 16.9896 376.224 17.2187 376.438C17.4479 376.646 17.7917 376.75 18.25 376.75ZM28.7422 369.203C29.112 369.203 29.4167 369.229 29.6562 369.281L29.4766 370.992C29.2161 370.93 28.9453 370.898 28.6641 370.898C27.9297 370.898 27.3333 371.138 26.875 371.617C26.4219 372.096 26.1953 372.719 26.1953 373.484V378H24.3594V369.359H25.7969L26.0391 370.883H26.1328C26.4193 370.367 26.7917 369.958 27.25 369.656C27.7135 369.354 28.2109 369.203 28.7422 369.203ZM32.5391 373.438L33.5781 372.141L36.1875 369.359H38.3047L34.8281 373.07L38.5234 378H36.3672L33.5938 374.211L32.5859 375.039V378H30.7656V365.844H32.5859V371.773L32.4922 373.438H32.5391ZM43.1953 378.156C41.8516 378.156 40.7995 377.766 40.0391 376.984C39.2839 376.198 38.9062 375.117 38.9062 373.742C38.9062 372.331 39.2578 371.221 39.9609 370.414C40.6641 369.607 41.6302 369.203 42.8594 369.203C44 369.203 44.901 369.549 45.5625 370.242C46.224 370.935 46.5547 371.888 46.5547 373.102V374.094H40.7969C40.8229 374.932 41.0495 375.578 41.4766 376.031C41.9036 376.479 42.5052 376.703 43.2812 376.703C43.7917 376.703 44.2656 376.656 44.7031 376.562C45.1458 376.464 45.6198 376.302 46.125 376.078V377.57C45.6771 377.784 45.224 377.935 44.7656 378.023C44.3073 378.112 43.7839 378.156 43.1953 378.156ZM42.8594 370.594C42.276 370.594 41.8073 370.779 41.4531 371.148C41.1042 371.518 40.8958 372.057 40.8281 372.766H44.75C44.7396 372.052 44.5677 371.513 44.2344 371.148C43.901 370.779 43.4427 370.594 42.8594 370.594ZM51.3594 376.672C51.8073 376.672 52.2552 376.602 52.7031 376.461V377.844C52.5 377.932 52.237 378.005 51.9141 378.062C51.5964 378.125 51.2656 378.156 50.9219 378.156C49.1823 378.156 48.3125 377.24 48.3125 375.406V370.75H47.1328V369.938L48.3984 369.266L49.0234 367.438H50.1562V369.359H52.6172V370.75H50.1562V375.375C50.1562 375.818 50.2656 376.146 50.4844 376.359C50.7083 376.568 51 376.672 51.3594 376.672ZM55.7734 378H53.9375V369.359H55.7734V378ZM53.8281 367.07C53.8281 366.742 53.9167 366.49 54.0938 366.312C54.276 366.135 54.5339 366.047 54.8672 366.047C55.1901 366.047 55.4401 366.135 55.6172 366.312C55.7995 366.49 55.8906 366.742 55.8906 367.07C55.8906 367.383 55.7995 367.63 55.6172 367.812C55.4401 367.99 55.1901 368.078 54.8672 368.078C54.5339 368.078 54.276 367.99 54.0938 367.812C53.9167 367.63 53.8281 367.383 53.8281 367.07ZM65.5078 378H63.6641V372.688C63.6641 372.021 63.5286 371.523 63.2578 371.195C62.9922 370.867 62.5677 370.703 61.9844 370.703C61.2083 370.703 60.6406 370.932 60.2812 371.391C59.9219 371.849 59.7422 372.617 59.7422 373.695V378H57.9062V369.359H59.3438L59.6016 370.492H59.6953C59.9557 370.081 60.3255 369.763 60.8047 369.539C61.2839 369.315 61.8151 369.203 62.3984 369.203C64.4714 369.203 65.5078 370.258 65.5078 372.367V378ZM74.8594 369.359V370.367L73.3828 370.641C73.5182 370.823 73.6302 371.047 73.7188 371.312C73.8073 371.578 73.8516 371.859 73.8516 372.156C73.8516 373.047 73.5443 373.747 72.9297 374.258C72.3151 374.768 71.4688 375.023 70.3906 375.023C70.1146 375.023 69.8646 375.003 69.6406 374.961C69.2448 375.206 69.0469 375.492 69.0469 375.82C69.0469 376.018 69.138 376.167 69.3203 376.266C69.5078 376.365 69.849 376.414 70.3438 376.414H71.8516C72.8047 376.414 73.5286 376.617 74.0234 377.023C74.5182 377.43 74.7656 378.016 74.7656 378.781C74.7656 379.76 74.362 380.516 73.5547 381.047C72.7474 381.578 71.5807 381.844 70.0547 381.844C68.8776 381.844 67.9792 381.635 67.3594 381.219C66.7396 380.802 66.4297 380.208 66.4297 379.438C66.4297 378.906 66.5964 378.458 66.9297 378.094C67.2682 377.734 67.7396 377.484 68.3438 377.344C68.099 377.24 67.8958 377.073 67.7344 376.844C67.5781 376.609 67.5 376.365 67.5 376.109C67.5 375.786 67.5911 375.513 67.7734 375.289C67.9557 375.065 68.2266 374.844 68.5859 374.625C68.138 374.432 67.7734 374.12 67.4922 373.688C67.2161 373.25 67.0781 372.74 67.0781 372.156C67.0781 371.219 67.3724 370.492 67.9609 369.977C68.5547 369.461 69.3984 369.203 70.4922 369.203C70.737 369.203 70.9922 369.221 71.2578 369.258C71.5286 369.289 71.7318 369.323 71.8672 369.359H74.8594ZM68.0703 379.344C68.0703 379.74 68.2474 380.044 68.6016 380.258C68.9609 380.471 69.4635 380.578 70.1094 380.578C71.1094 380.578 71.8542 380.435 72.3438 380.148C72.8333 379.862 73.0781 379.482 73.0781 379.008C73.0781 378.633 72.9427 378.365 72.6719 378.203C72.4062 378.047 71.9089 377.969 71.1797 377.969H69.7891C69.263 377.969 68.8438 378.091 68.5312 378.336C68.224 378.586 68.0703 378.922 68.0703 379.344ZM68.8594 372.156C68.8594 372.698 68.9974 373.115 69.2734 373.406C69.5547 373.698 69.9557 373.844 70.4766 373.844C71.5391 373.844 72.0703 373.276 72.0703 372.141C72.0703 371.578 71.9375 371.146 71.6719 370.844C71.4115 370.536 71.013 370.383 70.4766 370.383C69.9453 370.383 69.5417 370.534 69.2656 370.836C68.9948 371.138 68.8594 371.578 68.8594 372.156ZM4.79687 398.156C3.48958 398.156 2.49479 397.776 1.8125 397.016C1.13542 396.25 0.796875 395.154 0.796875 393.727C0.796875 392.273 1.15104 391.156 1.85937 390.375C2.57292 389.594 3.60156 389.203 4.94531 389.203C5.85677 389.203 6.67708 389.372 7.40625 389.711L6.85156 391.188C6.07552 390.885 5.4349 390.734 4.92969 390.734C3.4349 390.734 2.6875 391.727 2.6875 393.711C2.6875 394.68 2.8724 395.409 3.24219 395.898C3.61719 396.383 4.16406 396.625 4.88281 396.625C5.70052 396.625 6.47396 396.422 7.20312 396.016V397.617C6.875 397.81 6.52344 397.948 6.14844 398.031C5.77865 398.115 5.32812 398.156 4.79687 398.156ZM16.3984 393.664C16.3984 395.076 16.0365 396.177 15.3125 396.969C14.5885 397.76 13.5807 398.156 12.2891 398.156C11.4818 398.156 10.7682 397.974 10.1484 397.609C9.52865 397.245 9.05208 396.721 8.71875 396.039C8.38542 395.357 8.21875 394.565 8.21875 393.664C8.21875 392.263 8.57812 391.169 9.29687 390.383C10.0156 389.596 11.0286 389.203 12.3359 389.203C13.5859 389.203 14.5755 389.607 15.3047 390.414C16.0339 391.216 16.3984 392.299 16.3984 393.664ZM10.1094 393.664C10.1094 395.659 10.8464 396.656 12.3203 396.656C13.7786 396.656 14.5078 395.659 14.5078 393.664C14.5078 391.69 13.7734 390.703 12.3047 390.703C11.5339 390.703 10.974 390.958 10.625 391.469C10.2812 391.979 10.1094 392.711 10.1094 393.664ZM23.8203 395.539C23.8203 396.383 23.513 397.031 22.8984 397.484C22.2839 397.932 21.4036 398.156 20.2578 398.156C19.1068 398.156 18.1823 397.982 17.4844 397.633V396.047C18.5 396.516 19.4453 396.75 20.3203 396.75C21.4505 396.75 22.0156 396.409 22.0156 395.727C22.0156 395.508 21.9531 395.326 21.8281 395.18C21.7031 395.034 21.4974 394.883 21.2109 394.727C20.9245 394.57 20.526 394.393 20.0156 394.195C19.0208 393.81 18.3464 393.424 17.9922 393.039C17.6432 392.654 17.4687 392.154 17.4687 391.539C17.4687 390.799 17.7656 390.227 18.3594 389.82C18.9583 389.409 19.7708 389.203 20.7969 389.203C21.8125 389.203 22.7734 389.409 23.6797 389.82L23.0859 391.203C22.1536 390.818 21.3698 390.625 20.7344 390.625C19.7656 390.625 19.2812 390.901 19.2812 391.453C19.2812 391.724 19.4062 391.953 19.6562 392.141C19.9115 392.328 20.4635 392.586 21.3125 392.914C22.026 393.19 22.5443 393.443 22.8672 393.672C23.1901 393.901 23.4297 394.167 23.5859 394.469C23.7422 394.766 23.8203 395.122 23.8203 395.539ZM28.5312 396.672C28.9792 396.672 29.4271 396.602 29.875 396.461V397.844C29.6719 397.932 29.4089 398.005 29.0859 398.062C28.7682 398.125 28.4375 398.156 28.0937 398.156C26.3542 398.156 25.4844 397.24 25.4844 395.406V390.75H24.3047V389.938L25.5703 389.266L26.1953 387.438H27.3281V389.359H29.7891V390.75H27.3281V395.375C27.3281 395.818 27.4375 396.146 27.6562 396.359C27.8802 396.568 28.1719 396.672 28.5312 396.672ZM36.9141 395.539C36.9141 396.383 36.6068 397.031 35.9922 397.484C35.3776 397.932 34.4974 398.156 33.3516 398.156C32.2005 398.156 31.276 397.982 30.5781 397.633V396.047C31.5937 396.516 32.5391 396.75 33.4141 396.75C34.5443 396.75 35.1094 396.409 35.1094 395.727C35.1094 395.508 35.0469 395.326 34.9219 395.18C34.7969 395.034 34.5911 394.883 34.3047 394.727C34.0182 394.57 33.6198 394.393 33.1094 394.195C32.1146 393.81 31.4401 393.424 31.0859 393.039C30.737 392.654 30.5625 392.154 30.5625 391.539C30.5625 390.799 30.8594 390.227 31.4531 389.82C32.0521 389.409 32.8646 389.203 33.8906 389.203C34.9062 389.203 35.8672 389.409 36.7734 389.82L36.1797 391.203C35.2474 390.818 34.4635 390.625 33.8281 390.625C32.8594 390.625 32.375 390.901 32.375 391.453C32.375 391.724 32.5 391.953 32.75 392.141C33.0052 392.328 33.5573 392.586 34.4062 392.914C35.1198 393.19 35.638 393.443 35.9609 393.672C36.2839 393.901 36.5234 394.167 36.6797 394.469C36.8359 394.766 36.9141 395.122 36.9141 395.539Z" fill="black"/>
</g>
<mask id="mask5_4_1601" style="mask-type:luminance" maskUnits="userSpaceOnUse" x="0" y="-4" width="430" height="526">
<path d="M430 -4H0V522H430V-4Z" fill="white"/>
</mask>
<g mask="url(#mask5_4_1601)">
<path d="M168.375 235.891H169.672C170.542 235.891 171.172 235.729 171.562 235.406C171.953 235.083 172.148 234.604 172.148 233.969C172.148 233.323 171.938 232.859 171.516 232.578C171.094 232.297 170.458 232.156 169.609 232.156H168.375V235.891ZM168.375 237.438V242H166.508V230.578H169.734C171.208 230.578 172.299 230.854 173.008 231.406C173.716 231.958 174.07 232.792 174.07 233.906C174.07 235.328 173.331 236.341 171.852 236.945L175.078 242H172.953L170.219 237.438H168.375ZM179.82 242.156C178.477 242.156 177.424 241.766 176.664 240.984C175.909 240.198 175.531 239.117 175.531 237.742C175.531 236.331 175.883 235.221 176.586 234.414C177.289 233.607 178.255 233.203 179.484 233.203C180.625 233.203 181.526 233.549 182.188 234.242C182.849 234.935 183.18 235.888 183.18 237.102V238.094H177.422C177.448 238.932 177.674 239.578 178.102 240.031C178.529 240.479 179.13 240.703 179.906 240.703C180.417 240.703 180.891 240.656 181.328 240.562C181.771 240.464 182.245 240.302 182.75 240.078V241.57C182.302 241.784 181.849 241.935 181.391 242.023C180.932 242.112 180.409 242.156 179.82 242.156ZM179.484 234.594C178.901 234.594 178.432 234.779 178.078 235.148C177.729 235.518 177.521 236.057 177.453 236.766H181.375C181.365 236.052 181.193 235.513 180.859 235.148C180.526 234.779 180.068 234.594 179.484 234.594ZM186.734 242L183.453 233.359H185.391L187.148 238.383C187.451 239.227 187.633 239.909 187.695 240.43H187.758C187.805 240.055 187.987 239.372 188.305 238.383L190.062 233.359H192.016L188.719 242H186.734ZM196.602 242.156C195.258 242.156 194.206 241.766 193.445 240.984C192.69 240.198 192.312 239.117 192.312 237.742C192.312 236.331 192.664 235.221 193.367 234.414C194.07 233.607 195.036 233.203 196.266 233.203C197.406 233.203 198.307 233.549 198.969 234.242C199.63 234.935 199.961 235.888 199.961 237.102V238.094H194.203C194.229 238.932 194.456 239.578 194.883 240.031C195.31 240.479 195.911 240.703 196.688 240.703C197.198 240.703 197.672 240.656 198.109 240.562C198.552 240.464 199.026 240.302 199.531 240.078V241.57C199.083 241.784 198.63 241.935 198.172 242.023C197.714 242.112 197.19 242.156 196.602 242.156ZM196.266 234.594C195.682 234.594 195.214 234.779 194.859 235.148C194.51 235.518 194.302 236.057 194.234 236.766H198.156C198.146 236.052 197.974 235.513 197.641 235.148C197.307 234.779 196.849 234.594 196.266 234.594ZM209.148 242H207.305V236.688C207.305 236.021 207.169 235.523 206.898 235.195C206.633 234.867 206.208 234.703 205.625 234.703C204.849 234.703 204.281 234.932 203.922 235.391C203.562 235.849 203.383 236.617 203.383 237.695V242H201.547V233.359H202.984L203.242 234.492H203.336C203.596 234.081 203.966 233.763 204.445 233.539C204.924 233.315 205.456 233.203 206.039 233.203C208.112 233.203 209.148 234.258 209.148 236.367V242ZM217.297 242L217.039 240.867H216.945C216.69 241.268 216.326 241.583 215.852 241.812C215.383 242.042 214.846 242.156 214.242 242.156C213.195 242.156 212.414 241.896 211.898 241.375C211.383 240.854 211.125 240.065 211.125 239.008V233.359H212.977V238.688C212.977 239.349 213.112 239.846 213.383 240.18C213.654 240.508 214.078 240.672 214.656 240.672C215.427 240.672 215.992 240.443 216.352 239.984C216.716 239.521 216.898 238.747 216.898 237.664V233.359H218.742V242H217.297ZM224.633 242.156C223.289 242.156 222.237 241.766 221.477 240.984C220.721 240.198 220.344 239.117 220.344 237.742C220.344 236.331 220.695 235.221 221.398 234.414C222.102 233.607 223.068 233.203 224.297 233.203C225.438 233.203 226.339 233.549 227 234.242C227.661 234.935 227.992 235.888 227.992 237.102V238.094H222.234C222.26 238.932 222.487 239.578 222.914 240.031C223.341 240.479 223.943 240.703 224.719 240.703C225.229 240.703 225.703 240.656 226.141 240.562C226.583 240.464 227.057 240.302 227.562 240.078V241.57C227.115 241.784 226.661 241.935 226.203 242.023C225.745 242.112 225.221 242.156 224.633 242.156ZM224.297 234.594C223.714 234.594 223.245 234.779 222.891 235.148C222.542 235.518 222.333 236.057 222.266 236.766H226.188C226.177 236.052 226.005 235.513 225.672 235.148C225.339 234.779 224.88 234.594 224.297 234.594ZM173.609 253.359V254.367L172.133 254.641C172.268 254.823 172.38 255.047 172.469 255.312C172.557 255.578 172.602 255.859 172.602 256.156C172.602 257.047 172.294 257.747 171.68 258.258C171.065 258.768 170.219 259.023 169.141 259.023C168.865 259.023 168.615 259.003 168.391 258.961C167.995 259.206 167.797 259.492 167.797 259.82C167.797 260.018 167.888 260.167 168.07 260.266C168.258 260.365 168.599 260.414 169.094 260.414H170.602C171.555 260.414 172.279 260.617 172.773 261.023C173.268 261.43 173.516 262.016 173.516 262.781C173.516 263.76 173.112 264.516 172.305 265.047C171.497 265.578 170.331 265.844 168.805 265.844C167.628 265.844 166.729 265.635 166.109 265.219C165.49 264.802 165.18 264.208 165.18 263.438C165.18 262.906 165.346 262.458 165.68 262.094C166.018 261.734 166.49 261.484 167.094 261.344C166.849 261.24 166.646 261.073 166.484 260.844C166.328 260.609 166.25 260.365 166.25 260.109C166.25 259.786 166.341 259.513 166.523 259.289C166.706 259.065 166.977 258.844 167.336 258.625C166.888 258.432 166.523 258.12 166.242 257.688C165.966 257.25 165.828 256.74 165.828 256.156C165.828 255.219 166.122 254.492 166.711 253.977C167.305 253.461 168.148 253.203 169.242 253.203C169.487 253.203 169.742 253.221 170.008 253.258C170.279 253.289 170.482 253.323 170.617 253.359H173.609ZM166.82 263.344C166.82 263.74 166.997 264.044 167.352 264.258C167.711 264.471 168.214 264.578 168.859 264.578C169.859 264.578 170.604 264.435 171.094 264.148C171.583 263.862 171.828 263.482 171.828 263.008C171.828 262.633 171.693 262.365 171.422 262.203C171.156 262.047 170.659 261.969 169.93 261.969H168.539C168.013 261.969 167.594 262.091 167.281 262.336C166.974 262.586 166.82 262.922 166.82 263.344ZM167.609 256.156C167.609 256.698 167.747 257.115 168.023 257.406C168.305 257.698 168.706 257.844 169.227 257.844C170.289 257.844 170.82 257.276 170.82 256.141C170.82 255.578 170.688 255.146 170.422 254.844C170.161 254.536 169.763 254.383 169.227 254.383C168.695 254.383 168.292 254.534 168.016 254.836C167.745 255.138 167.609 255.578 167.609 256.156ZM178.492 262.156C177.148 262.156 176.096 261.766 175.336 260.984C174.581 260.198 174.203 259.117 174.203 257.742C174.203 256.331 174.555 255.221 175.258 254.414C175.961 253.607 176.927 253.203 178.156 253.203C179.297 253.203 180.198 253.549 180.859 254.242C181.521 254.935 181.852 255.888 181.852 257.102V258.094H176.094C176.12 258.932 176.346 259.578 176.773 260.031C177.201 260.479 177.802 260.703 178.578 260.703C179.089 260.703 179.562 260.656 180 260.562C180.443 260.464 180.917 260.302 181.422 260.078V261.57C180.974 261.784 180.521 261.935 180.062 262.023C179.604 262.112 179.081 262.156 178.492 262.156ZM178.156 254.594C177.573 254.594 177.104 254.779 176.75 255.148C176.401 255.518 176.193 256.057 176.125 256.766H180.047C180.036 256.052 179.865 255.513 179.531 255.148C179.198 254.779 178.74 254.594 178.156 254.594ZM191.039 262H189.195V256.688C189.195 256.021 189.06 255.523 188.789 255.195C188.523 254.867 188.099 254.703 187.516 254.703C186.74 254.703 186.172 254.932 185.812 255.391C185.453 255.849 185.273 256.617 185.273 257.695V262H183.438V253.359H184.875L185.133 254.492H185.227C185.487 254.081 185.857 253.763 186.336 253.539C186.815 253.315 187.346 253.203 187.93 253.203C190.003 253.203 191.039 254.258 191.039 256.367V262ZM196.867 262.156C195.523 262.156 194.471 261.766 193.711 260.984C192.956 260.198 192.578 259.117 192.578 257.742C192.578 256.331 192.93 255.221 193.633 254.414C194.336 253.607 195.302 253.203 196.531 253.203C197.672 253.203 198.573 253.549 199.234 254.242C199.896 254.935 200.227 255.888 200.227 257.102V258.094H194.469C194.495 258.932 194.721 259.578 195.148 260.031C195.576 260.479 196.177 260.703 196.953 260.703C197.464 260.703 197.938 260.656 198.375 260.562C198.818 260.464 199.292 260.302 199.797 260.078V261.57C199.349 261.784 198.896 261.935 198.438 262.023C197.979 262.112 197.456 262.156 196.867 262.156ZM196.531 254.594C195.948 254.594 195.479 254.779 195.125 255.148C194.776 255.518 194.568 256.057 194.5 256.766H198.422C198.411 256.052 198.24 255.513 197.906 255.148C197.573 254.779 197.115 254.594 196.531 254.594ZM206.195 253.203C206.565 253.203 206.87 253.229 207.109 253.281L206.93 254.992C206.669 254.93 206.398 254.898 206.117 254.898C205.383 254.898 204.786 255.138 204.328 255.617C203.875 256.096 203.648 256.719 203.648 257.484V262H201.812V253.359H203.25L203.492 254.883H203.586C203.872 254.367 204.245 253.958 204.703 253.656C205.167 253.354 205.664 253.203 206.195 253.203ZM213.625 262L213.258 260.797H213.195C212.779 261.323 212.359 261.682 211.938 261.875C211.516 262.062 210.974 262.156 210.312 262.156C209.464 262.156 208.799 261.927 208.32 261.469C207.846 261.01 207.609 260.362 207.609 259.523C207.609 258.633 207.94 257.961 208.602 257.508C209.263 257.055 210.271 256.807 211.625 256.766L213.117 256.719V256.258C213.117 255.706 212.987 255.294 212.727 255.023C212.471 254.747 212.073 254.609 211.531 254.609C211.089 254.609 210.664 254.674 210.258 254.805C209.852 254.935 209.461 255.089 209.086 255.266L208.492 253.953C208.961 253.708 209.474 253.523 210.031 253.398C210.589 253.268 211.115 253.203 211.609 253.203C212.708 253.203 213.536 253.443 214.094 253.922C214.656 254.401 214.938 255.154 214.938 256.18V262H213.625ZM210.891 260.75C211.557 260.75 212.091 260.565 212.492 260.195C212.898 259.82 213.102 259.297 213.102 258.625V257.875L211.992 257.922C211.128 257.953 210.497 258.099 210.102 258.359C209.711 258.615 209.516 259.008 209.516 259.539C209.516 259.924 209.63 260.224 209.859 260.438C210.089 260.646 210.432 260.75 210.891 260.75ZM220.219 260.672C220.667 260.672 221.115 260.602 221.562 260.461V261.844C221.359 261.932 221.096 262.005 220.773 262.062C220.456 262.125 220.125 262.156 219.781 262.156C218.042 262.156 217.172 261.24 217.172 259.406V254.75H215.992V253.938L217.258 253.266L217.883 251.438H219.016V253.359H221.477V254.75H219.016V259.375C219.016 259.818 219.125 260.146 219.344 260.359C219.568 260.568 219.859 260.672 220.219 260.672ZM226.57 262.156C225.227 262.156 224.174 261.766 223.414 260.984C222.659 260.198 222.281 259.117 222.281 257.742C222.281 256.331 222.633 255.221 223.336 254.414C224.039 253.607 225.005 253.203 226.234 253.203C227.375 253.203 228.276 253.549 228.938 254.242C229.599 254.935 229.93 255.888 229.93 257.102V258.094H224.172C224.198 258.932 224.424 259.578 224.852 260.031C225.279 260.479 225.88 260.703 226.656 260.703C227.167 260.703 227.641 260.656 228.078 260.562C228.521 260.464 228.995 260.302 229.5 260.078V261.57C229.052 261.784 228.599 261.935 228.141 262.023C227.682 262.112 227.159 262.156 226.57 262.156ZM226.234 254.594C225.651 254.594 225.182 254.779 224.828 255.148C224.479 255.518 224.271 256.057 224.203 256.766H228.125C228.115 256.052 227.943 255.513 227.609 255.148C227.276 254.779 226.818 254.594 226.234 254.594ZM234.43 262.156C233.352 262.156 232.51 261.766 231.906 260.984C231.302 260.203 231 259.107 231 257.695C231 256.279 231.305 255.177 231.914 254.391C232.529 253.599 233.378 253.203 234.461 253.203C235.596 253.203 236.461 253.622 237.055 254.461H237.148C237.06 253.841 237.016 253.352 237.016 252.992V249.844H238.859V262H237.422L237.102 260.867H237.016C236.427 261.727 235.565 262.156 234.43 262.156ZM234.922 260.672C235.677 260.672 236.227 260.461 236.57 260.039C236.914 259.612 237.091 258.922 237.102 257.969V257.711C237.102 256.622 236.924 255.849 236.57 255.391C236.216 254.932 235.661 254.703 234.906 254.703C234.26 254.703 233.763 254.966 233.414 255.492C233.065 256.013 232.891 256.758 232.891 257.727C232.891 258.685 233.06 259.417 233.398 259.922C233.737 260.422 234.245 260.672 234.922 260.672Z" fill="black"/>
</g>
<mask id="mask6_4_1601" style="mask-type:luminance" maskUnits="userSpaceOnUse" x="0" y="-4" width="430" height="526">
<path d="M430 -4H0V522H430V-4Z" fill="white"/>
</mask>
<g mask="url(#mask6_4_1601)">
<path d="M319.734 5.78906L322.438 0.578135H324.469L320.664 7.5703V12H318.789V7.6328L315 0.578125L317.031 0.578135L319.734 5.78906ZM332.945 7.6641C332.945 9.0755 332.583 10.1771 331.859 10.9688C331.135 11.7604 330.128 12.1563 328.836 12.1563C328.029 12.1563 327.315 11.974 326.695 11.6094C326.076 11.2448 325.599 10.7214 325.266 10.0391C324.932 9.3568 324.766 8.5651 324.766 7.6641C324.766 6.263 325.125 5.16927 325.844 4.38281C326.562 3.59635 327.576 3.20313 328.883 3.20313C330.133 3.20313 331.122 3.60677 331.852 4.41406C332.581 5.21615 332.945 6.2995 332.945 7.6641ZM326.656 7.6641C326.656 9.6589 327.393 10.6563 328.867 10.6563C330.326 10.6563 331.055 9.6589 331.055 7.6641C331.055 5.6901 330.32 4.70313 328.852 4.70313C328.081 4.70313 327.521 4.95833 327.172 5.46875C326.828 5.97917 326.656 6.7109 326.656 7.6641ZM340.656 12L340.398 10.8672H340.305C340.049 11.2682 339.685 11.5833 339.211 11.8125C338.742 12.0417 338.206 12.1563 337.602 12.1563C336.555 12.1563 335.773 11.8958 335.258 11.375C334.742 10.8542 334.484 10.0651 334.484 9.0078V3.35938H336.336V8.6875C336.336 9.349 336.471 9.8464 336.742 10.1797C337.013 10.5078 337.438 10.6719 338.016 10.6719C338.786 10.6719 339.352 10.4427 339.711 9.9844C340.076 9.5208 340.258 8.7474 340.258 7.6641V3.35938H342.102V12H340.656ZM348.602 3.20313C348.971 3.20313 349.276 3.22917 349.516 3.28125L349.336 4.9922C349.076 4.9297 348.805 4.89845 348.523 4.89845C347.789 4.89845 347.193 5.13803 346.734 5.6172C346.281 6.09641 346.055 6.7188 346.055 7.4844V12H344.219V3.35938H345.656L345.898 4.88281H345.992C346.279 4.36719 346.651 3.95833 347.109 3.65625C347.573 3.35417 348.07 3.20313 348.602 3.20313ZM357.766 12.1563C356.458 12.1563 355.464 11.776 354.781 11.0156C354.104 10.25 353.766 9.1536 353.766 7.7266C353.766 6.2734 354.12 5.15625 354.828 4.375C355.542 3.59375 356.57 3.20313 357.914 3.20313C358.826 3.20313 359.646 3.3724 360.375 3.71094L359.82 5.1875C359.044 4.88542 358.404 4.73438 357.898 4.73438C356.404 4.73438 355.656 5.72657 355.656 7.71091C355.656 8.67971 355.841 9.40891 356.211 9.89841C356.586 10.3828 357.133 10.625 357.852 10.625C358.669 10.625 359.443 10.4219 360.172 10.0156V11.6172C359.844 11.8099 359.492 11.9479 359.117 12.0313C358.747 12.1146 358.297 12.1563 357.766 12.1563ZM369.367 7.6641C369.367 9.0755 369.005 10.1771 368.281 10.9688C367.557 11.7604 366.549 12.1563 365.258 12.1563C364.451 12.1563 363.737 11.974 363.117 11.6094C362.497 11.2448 362.021 10.7214 361.688 10.0391C361.354 9.3568 361.188 8.5651 361.188 7.6641C361.188 6.263 361.547 5.16927 362.266 4.38281C362.984 3.59635 363.997 3.20313 365.305 3.20313C366.555 3.20313 367.544 3.60677 368.273 4.41406C369.003 5.21615 369.367 6.2995 369.367 7.6641ZM363.078 7.6641C363.078 9.6589 363.815 10.6563 365.289 10.6563C366.747 10.6563 367.477 9.6589 367.477 7.6641C367.477 5.6901 366.742 4.70313 365.273 4.70313C364.503 4.70313 363.943 4.95833 363.594 5.46875C363.25 5.97917 363.078 6.7109 363.078 7.6641ZM378.266 12H376.422V6.6719C376.422 6.0104 376.297 5.51823 376.047 5.19531C375.797 4.86719 375.406 4.70313 374.875 4.70313C374.167 4.70313 373.646 4.93491 373.312 5.39845C372.984 5.85678 372.82 6.6224 372.82 7.6953V12H370.984V3.35938H372.422L372.68 4.4922H372.773C373.013 4.08074 373.359 3.76302 373.812 3.53906C374.271 3.3151 374.773 3.20313 375.32 3.20313C376.648 3.20313 377.529 3.65625 377.961 4.5625H378.086C378.341 4.13542 378.701 3.80208 379.164 3.5625C379.628 3.32292 380.159 3.20313 380.758 3.20313C381.789 3.20313 382.539 3.46354 383.008 3.98438C383.482 4.50521 383.719 5.29948 383.719 6.3672V12H381.883V6.6719C381.883 6.0104 381.755 5.51823 381.5 5.19531C381.25 4.86719 380.859 4.70313 380.328 4.70313C379.615 4.70313 379.091 4.92708 378.758 5.375C378.43 5.81771 378.266 6.5 378.266 7.4219V12ZM390.164 12.1563C389.07 12.1563 388.221 11.763 387.617 10.9766H387.508C387.581 11.7057 387.617 12.1484 387.617 12.3047V15.8438H385.781V3.35938H387.266C387.307 3.52083 387.393 3.90625 387.523 4.51563H387.617C388.19 3.64063 389.049 3.20313 390.195 3.20313C391.273 3.20313 392.112 3.59375 392.711 4.375C393.315 5.15625 393.617 6.2526 393.617 7.6641C393.617 9.0755 393.31 10.1771 392.695 10.9688C392.086 11.7604 391.242 12.1563 390.164 12.1563ZM389.719 4.70313C388.99 4.70313 388.456 4.91667 388.117 5.34375C387.784 5.77083 387.617 6.4531 387.617 7.3906V7.6641C387.617 8.7161 387.784 9.4792 388.117 9.9531C388.451 10.4219 388.995 10.6563 389.75 10.6563C390.385 10.6563 390.875 10.3958 391.219 9.875C391.562 9.3542 391.734 8.61201 391.734 7.64841C391.734 6.67971 391.562 5.94792 391.219 5.45313C390.88 4.95313 390.38 4.70313 389.719 4.70313ZM400.656 12L400.289 10.7969H400.227C399.81 11.3229 399.391 11.6823 398.969 11.875C398.547 12.0625 398.005 12.1563 397.344 12.1563C396.495 12.1563 395.831 11.9271 395.352 11.4688C394.878 11.0104 394.641 10.362 394.641 9.52341C394.641 8.63281 394.971 7.9609 395.633 7.5078C396.294 7.0547 397.302 6.8073 398.656 6.7656L400.148 6.7188V6.2578C400.148 5.70573 400.018 5.29428 399.758 5.02345C399.503 4.74741 399.104 4.60938 398.562 4.60938C398.12 4.60938 397.695 4.67449 397.289 4.8047C396.883 4.93491 396.492 5.08854 396.117 5.26563L395.523 3.95313C395.992 3.70833 396.505 3.52344 397.062 3.39844C397.62 3.26823 398.146 3.20313 398.641 3.20313C399.74 3.20313 400.568 3.44271 401.125 3.92188C401.688 4.40104 401.969 5.15365 401.969 6.1797V12H400.656ZM397.922 10.75C398.589 10.75 399.122 10.5651 399.523 10.1953C399.93 9.8203 400.133 9.2969 400.133 8.625V7.875L399.023 7.9219C398.159 7.9531 397.529 8.099 397.133 8.3594C396.742 8.6146 396.547 9.0078 396.547 9.5391C396.547 9.9245 396.661 10.224 396.891 10.4375C397.12 10.6458 397.464 10.75 397.922 10.75ZM411.633 12H409.789V6.6875C409.789 6.0208 409.654 5.52344 409.383 5.19531C409.117 4.86719 408.693 4.70313 408.109 4.70313C407.333 4.70313 406.766 4.93229 406.406 5.39063C406.047 5.84896 405.867 6.6172 405.867 7.6953V12H404.031V3.35938H405.469L405.727 4.4922H405.82C406.081 4.08074 406.451 3.76302 406.93 3.53906C407.409 3.3151 407.94 3.20313 408.523 3.20313C410.596 3.20313 411.633 4.25781 411.633 6.3672V12ZM412.375 3.35938H414.375L416.133 8.2578C416.398 8.9557 416.576 9.612 416.664 10.2266H416.727C416.773 9.9401 416.859 9.5938 416.984 9.1875C417.109 8.776 417.771 6.8333 418.969 3.35938H420.953L417.258 13.1484C416.586 14.9453 415.466 15.8438 413.898 15.8438C413.492 15.8438 413.096 15.7995 412.711 15.7109V14.2578C412.987 14.3203 413.302 14.3516 413.656 14.3516C414.542 14.3516 415.164 13.8385 415.523 12.8125L415.844 12L412.375 3.35938ZM318.281 32L315 23.3594H316.938L318.695 28.3828C318.997 29.2266 319.18 29.9089 319.242 30.4297H319.305C319.352 30.0547 319.534 29.3724 319.852 28.3828L321.609 23.3594H323.562L320.266 32H318.281ZM329.781 32L329.414 30.7969H329.352C328.935 31.3229 328.516 31.6823 328.094 31.875C327.672 32.0625 327.13 32.1562 326.469 32.1562C325.62 32.1562 324.956 31.9271 324.477 31.4688C324.003 31.0104 323.766 30.362 323.766 29.5234C323.766 28.6328 324.096 27.9609 324.758 27.5078C325.419 27.0547 326.427 26.8073 327.781 26.7656L329.273 26.7188V26.2578C329.273 25.7057 329.143 25.2943 328.883 25.0234C328.628 24.7474 328.229 24.6094 327.688 24.6094C327.245 24.6094 326.82 24.6745 326.414 24.8047C326.008 24.9349 325.617 25.0885 325.242 25.2656L324.648 23.9531C325.117 23.7083 325.63 23.5234 326.188 23.3984C326.745 23.2682 327.271 23.2031 327.766 23.2031C328.865 23.2031 329.693 23.4427 330.25 23.9219C330.812 24.401 331.094 25.1536 331.094 26.1797V32H329.781ZM327.047 30.75C327.714 30.75 328.247 30.5651 328.648 30.1953C329.055 29.8203 329.258 29.2969 329.258 28.625V27.875L328.148 27.9219C327.284 27.9531 326.654 28.099 326.258 28.3594C325.867 28.6146 325.672 29.0078 325.672 29.5391C325.672 29.9245 325.786 30.224 326.016 30.4375C326.245 30.6458 326.589 30.75 327.047 30.75ZM334.992 32H333.156V19.8438H334.992V32ZM343.219 32L342.961 30.8672H342.867C342.612 31.2682 342.247 31.5833 341.773 31.8125C341.305 32.0417 340.768 32.1563 340.164 32.1563C339.117 32.1563 338.336 31.8958 337.82 31.375C337.305 30.8542 337.047 30.0651 337.047 29.0078V23.3594H338.898V28.6875C338.898 29.349 339.034 29.8464 339.305 30.1797C339.576 30.5078 340 30.6719 340.578 30.6719C341.349 30.6719 341.914 30.4427 342.273 29.9844C342.638 29.5208 342.82 28.7474 342.82 27.6641V23.3594H344.664V32H343.219ZM352.188 32L351.82 30.7969H351.758C351.341 31.3229 350.922 31.6823 350.5 31.875C350.078 32.0625 349.536 32.1563 348.875 32.1563C348.026 32.1563 347.362 31.9271 346.883 31.4688C346.409 31.0104 346.172 30.362 346.172 29.5234C346.172 28.6328 346.503 27.9609 347.164 27.5078C347.826 27.0547 348.833 26.8073 350.188 26.7656L351.68 26.7188V26.2578C351.68 25.7057 351.549 25.2943 351.289 25.0234C351.034 24.7474 350.635 24.6094 350.094 24.6094C349.651 24.6094 349.227 24.6745 348.82 24.8047C348.414 24.9349 348.023 25.0885 347.648 25.2656L347.055 23.9531C347.523 23.7083 348.036 23.5234 348.594 23.3984C349.151 23.2682 349.677 23.2031 350.172 23.2031C351.271 23.2031 352.099 23.4427 352.656 23.9219C353.219 24.401 353.5 25.1536 353.5 26.1797V32H352.188ZM349.453 30.75C350.12 30.75 350.654 30.5651 351.055 30.1953C351.461 29.8203 351.664 29.2969 351.664 28.625V27.875L350.555 27.9219C349.69 27.9531 349.06 28.099 348.664 28.3594C348.273 28.6146 348.078 29.0078 348.078 29.5391C348.078 29.9245 348.193 30.224 348.422 30.4375C348.651 30.6458 348.995 30.75 349.453 30.75ZM358.781 30.6719C359.229 30.6719 359.677 30.6016 360.125 30.4609V31.8438C359.922 31.9323 359.659 32.0052 359.336 32.0625C359.018 32.125 358.688 32.1563 358.344 32.1563C356.604 32.1563 355.734 31.2396 355.734 29.4063V24.75H354.555V23.9375L355.82 23.2656L356.445 21.4375H357.578V23.3594H360.039V24.75H357.578V29.375C357.578 29.8177 357.688 30.1458 357.906 30.3594C358.13 30.5677 358.422 30.6719 358.781 30.6719ZM363.195 32H361.359V23.3594H363.195V32ZM361.25 21.0703C361.25 20.7422 361.339 20.4896 361.516 20.3125C361.698 20.1354 361.956 20.0469 362.289 20.0469C362.612 20.0469 362.862 20.1354 363.039 20.3125C363.221 20.4896 363.312 20.7422 363.312 21.0703C363.312 21.3828 363.221 21.6302 363.039 21.8125C362.862 21.9896 362.612 22.0781 362.289 22.0781C361.956 22.0781 361.698 21.9896 361.516 21.8125C361.339 21.6302 361.25 21.3828 361.25 21.0703ZM372.992 27.6641C372.992 29.0755 372.63 30.1771 371.906 30.9688C371.182 31.7604 370.174 32.1563 368.883 32.1563C368.076 32.1563 367.362 31.974 366.742 31.6094C366.122 31.2448 365.646 30.7214 365.312 30.0391C364.979 29.3568 364.812 28.5651 364.812 27.6641C364.812 26.263 365.172 25.1693 365.891 24.3828C366.609 23.5964 367.622 23.2031 368.93 23.2031C370.18 23.2031 371.169 23.6068 371.898 24.4141C372.628 25.2161 372.992 26.2995 372.992 27.6641ZM366.703 27.6641C366.703 29.6589 367.44 30.6563 368.914 30.6563C370.372 30.6563 371.102 29.6589 371.102 27.6641C371.102 25.6901 370.367 24.7031 368.898 24.7031C368.128 24.7031 367.568 24.9583 367.219 25.4688C366.875 25.9792 366.703 26.7109 366.703 27.6641ZM382.211 32H380.367V26.6875C380.367 26.0208 380.232 25.5234 379.961 25.1953C379.695 24.8672 379.271 24.7031 378.688 24.7031C377.911 24.7031 377.344 24.9323 376.984 25.3906C376.625 25.849 376.445 26.6172 376.445 27.6953V32H374.609V23.3594H376.047L376.305 24.4922H376.398C376.659 24.0807 377.029 23.763 377.508 23.5391C377.987 23.3151 378.518 23.2031 379.102 23.2031C381.174 23.2031 382.211 24.2578 382.211 26.3672V32Z" fill="black"/>
</g>
<mask id="mask7_4_1601" style="mask-type:luminance" maskUnits="userSpaceOnUse" x="0" y="-4" width="430" height="526">
<path d="M430 -4H0V522H430V-4Z" fill="white"/>
</mask>
<g mask="url(#mask7_4_1601)">
<path fill-rule="evenodd" clip-rule="evenodd" d="M165 285H265V521H165V285Z" fill="url(#paint0_linear_4_1601)"/>
</g>
<mask id="mask8_4_1601" style="mask-type:luminance" maskUnits="userSpaceOnUse" x="0" y="-4" width="430" height="526">
<path d="M430 -4H0V522H430V-4Z" fill="white"/>
</mask>
<g mask="url(#mask8_4_1601)">
<path fill-rule="evenodd" clip-rule="evenodd" d="M165 285H265L260 281H174L165 285Z" fill="url(#paint1_linear_4_1601)"/>
</g>
<mask id="mask9_4_1601" style="mask-type:luminance" maskUnits="userSpaceOnUse" x="0" y="-4" width="430" height="526">
<path d="M430 -4H0V522H430V-4Z" fill="white"/>
</mask>
<g mask="url(#mask9_4_1601)">
<path d="M264.5 285.5V521" stroke="#AFEEFF" stroke-linecap="round"/>
</g>
<mask id="mask10_4_1601" style="mask-type:luminance" maskUnits="userSpaceOnUse" x="0" y="-4" width="430" height="526">
<path d="M430 -4H0V522H430V-4Z" fill="white"/>
</mask>
<g mask="url(#mask10_4_1601)">
<path d="M264.5 285.5H165.5" stroke="#AFEEFF" stroke-linecap="round"/>
</g>
<mask id="mask11_4_1601" style="mask-type:luminance" maskUnits="userSpaceOnUse" x="0" y="-4" width="430" height="526">
<path d="M430 -4H0V522H430V-4Z" fill="white"/>
</mask>
<g mask="url(#mask11_4_1601)">
<path fill-rule="evenodd" clip-rule="evenodd" d="M430 51H330V521H430V51Z" fill="url(#paint2_linear_4_1601)"/>
</g>
<mask id="mask12_4_1601" style="mask-type:luminance" maskUnits="userSpaceOnUse" x="0" y="-4" width="430" height="526">
<path d="M430 -4H0V522H430V-4Z" fill="white"/>
</mask>
<g mask="url(#mask12_4_1601)">
<path fill-rule="evenodd" clip-rule="evenodd" d="M315 62L330 51V521L315 512V62Z" fill="url(#paint3_linear_4_1601)"/>
</g>
<mask id="mask13_4_1601" style="mask-type:luminance" maskUnits="userSpaceOnUse" x="0" y="-4" width="430" height="526">
<path d="M430 -4H0V522H430V-4Z" fill="white"/>
</mask>
<g mask="url(#mask13_4_1601)">
<path d="M330.5 51.5V521" stroke="#75FFF0" stroke-linecap="round"/>
</g>
<mask id="mask14_4_1601" style="mask-type:luminance" maskUnits="userSpaceOnUse" x="0" y="-4" width="430" height="526">
<path d="M430 -4H0V522H430V-4Z" fill="white"/>
</mask>
<g mask="url(#mask14_4_1601)">
<path d="M330.5 51.5H429.5" stroke="#75FFF0" stroke-linecap="round"/>
</g>
<g clip-path="url(#clip1_4_1601)">
<path fill-rule="evenodd" clip-rule="evenodd" d="M0 426H100V521H0V426Z" fill="url(#paint4_linear_4_1601)"/>
<path fill-rule="evenodd" clip-rule="evenodd" d="M0 426H100L115 417H15L0 426Z" fill="url(#paint5_linear_4_1601)"/>
<path fill-rule="evenodd" clip-rule="evenodd" d="M115 417L100 426V521L115 512V417Z" fill="url(#paint6_linear_4_1601)"/>
<path d="M99.5 426.5V521" stroke="#2797FF"/>
<path d="M99.5 426.5H0.5" stroke="#2797FF"/>
</g>
</g>
<defs>
<filter id="filter0_f_4_1601" x="279.596" y="491.077" width="160" height="45" filterUnits="userSpaceOnUse" color-interpolation-filters="sRGB">
<feFlood flood-opacity="0" result="BackgroundImageFix"/>
<feBlend mode="normal" in="SourceGraphic" in2="BackgroundImageFix" result="shape"/>
<feGaussianBlur stdDeviation="7.5" result="effect1_foregroundBlur_4_1601"/>
</filter>
<filter id="filter1_f_4_1601" x="-0.982971" y="491.692" width="147" height="45" filterUnits="userSpaceOnUse" color-interpolation-filters="sRGB">
<feFlood flood-opacity="0" result="BackgroundImageFix"/>
<feBlend mode="normal" in="SourceGraphic" in2="BackgroundImageFix" result="shape"/>
<feGaussianBlur stdDeviation="7.5" result="effect1_foregroundBlur_4_1601"/>
</filter>
<filter id="filter2_f_4_1601" x="133.593" y="491.077" width="136" height="45" filterUnits="userSpaceOnUse" color-interpolation-filters="sRGB">
<feFlood flood-opacity="0" result="BackgroundImageFix"/>
<feBlend mode="normal" in="SourceGraphic" in2="BackgroundImageFix" result="shape"/>
<feGaussianBlur stdDeviation="7.5" result="effect1_foregroundBlur_4_1601"/>
</filter>
<filter id="filter3_f_4_1601" x="160.593" y="491.077" width="136" height="45" filterUnits="userSpaceOnUse" color-interpolation-filters="sRGB">
<feFlood flood-opacity="0" result="BackgroundImageFix"/>
<feBlend mode="normal" in="SourceGraphic" in2="BackgroundImageFix" result="shape"/>
<feGaussianBlur stdDeviation="7.5" result="effect1_foregroundBlur_4_1601"/>
</filter>
<linearGradient id="paint0_linear_4_1601" x1="165" y1="285" x2="165" y2="521" gradientUnits="userSpaceOnUse">
<stop stop-color="#74E1FF"/>
<stop offset="1" stop-color="#49D8FF"/>
</linearGradient>
<linearGradient id="paint1_linear_4_1601" x1="165" y1="285" x2="165" y2="281" gradientUnits="userSpaceOnUse">
<stop stop-color="#74E1FF"/>
<stop offset="1" stop-color="#49D8FF"/>
</linearGradient>
<linearGradient id="paint2_linear_4_1601" x1="430" y1="51" x2="430" y2="521" gradientUnits="userSpaceOnUse">
<stop stop-color="#56F8E8"/>
<stop offset="1" stop-color="#70E5D4"/>
</linearGradient>
<linearGradient id="paint3_linear_4_1601" x1="550.646" y1="-3405.79" x2="315" y2="-3405.79" gradientUnits="userSpaceOnUse">
<stop stop-color="#5DF3E2"/>
<stop offset="1" stop-color="#42CDB9"/>
</linearGradient>
<linearGradient id="paint4_linear_4_1601" x1="0" y1="426" x2="0" y2="521" gradientUnits="userSpaceOnUse">
<stop stop-color="#2797FF"/>
<stop offset="1" stop-color="#2286E3"/>
</linearGradient>
<linearGradient id="paint5_linear_4_1601" x1="-762.568" y1="459.663" x2="-762.4" y2="338.163" gradientUnits="userSpaceOnUse">
<stop stop-color="#59AFFF"/>
<stop offset="1" stop-color="#2286E3"/>
</linearGradient>
<linearGradient id="paint6_linear_4_1601" x1="-120.646" y1="-347.907" x2="115" y2="-347.907" gradientUnits="userSpaceOnUse">
<stop stop-color="#2797FF"/>
<stop offset="1" stop-color="#2286E3"/>
</linearGradient>
<clipPath id="clip0_4_1601">
<rect width="429" height="521" fill="white"/>
</clipPath>
<clipPath id="clip1_4_1601">
<rect width="115" height="104" fill="white" transform="translate(0 417)"/>
</clipPath>
</defs>
</svg>
